<svg width="640" height="640" viewBox="0 0 640 640" fill="none" xmlns="http://www.w3.org/2000/svg">
<g clip-path="url(#clip0_6100_12062)">
<path d="M320 640C496.731 640 640 496.731 640 320C640 143.269 496.731 0 320 0C143.269 0 0 143.269 0 320C0 496.731 143.269 640 320 640Z" fill="white"/>
<path d="M97.85 318.293C97.85 195.524 197.374 96 320.143 96C386.293 96 445.727 124.936 486.4 170.733L437.153 214.47C408.45 182.15 366.687 161.865 320.143 161.865C233.75 161.865 163.715 231.9 163.715 318.293C163.715 404.686 233.75 474.722 320.143 474.722C366.687 474.722 408.45 454.436 437.153 422.117L486.4 465.853C445.727 511.651 386.293 540.587 320.143 540.587C197.374 540.587 97.85 441.062 97.85 318.293Z" fill="url(#paint0_linear_6100_12062)"/>
<path d="M221.102 318.611C282.415 322.891 315.519 355.414 320.381 416.242C320.413 416.649 320.974 416.649 321.005 416.242C325.899 355.414 358.971 322.86 420.284 318.611C420.689 318.611 420.689 318.018 420.284 317.987C358.971 313.706 325.868 281.184 321.005 220.355C320.974 219.949 320.413 219.949 320.381 220.355C315.488 281.184 282.415 313.738 221.102 317.987C220.697 317.987 220.697 318.58 221.102 318.611Z" fill="url(#paint1_linear_6100_12062)"/>
</g>
<defs>
<linearGradient id="paint0_linear_6100_12062" x1="291.644" y1="-200.391" x2="278.738" y2="692.731" gradientUnits="userSpaceOnUse">
<stop stop-color="#3E1866"/>
<stop offset="0.379808" stop-color="#C447EB"/>
<stop offset="0.826923" stop-color="#8191FF"/>
</linearGradient>
<linearGradient id="paint1_linear_6100_12062" x1="320.446" y1="89.0525" x2="315.542" y2="483.813" gradientUnits="userSpaceOnUse">
<stop stop-color="#3E1866"/>
<stop offset="0.379808" stop-color="#C447EB"/>
<stop offset="0.826923" stop-color="#8191FF"/>
</linearGradient>
<clipPath id="clip0_6100_12062">
<rect width="640" height="640" fill="white"/>
</clipPath>
</defs>
</svg>
