<svg width="640" height="640" viewBox="0 0 640 640" fill="none" xmlns="http://www.w3.org/2000/svg">
<circle cx="320" cy="320" r="320" fill="white"/>
<path d="M97.85 318.293C97.85 195.524 197.374 96 320.143 96C386.293 96 445.727 124.936 486.4 170.733L437.153 214.47C408.45 182.15 366.687 161.865 320.143 161.865C233.75 161.865 163.715 231.9 163.715 318.293C163.715 404.686 233.75 474.722 320.143 474.722C366.687 474.722 408.45 454.436 437.153 422.117L486.4 465.853C445.727 511.651 386.293 540.587 320.143 540.587C197.374 540.587 97.85 441.062 97.85 318.293Z" fill="url(#paint0_linear_351_2395)"/>
<path d="M221.102 318.611C282.415 322.891 315.519 355.414 320.381 416.242C320.413 416.649 320.974 416.649 321.005 416.242C325.899 355.414 358.971 322.86 420.284 318.611C420.689 318.611 420.689 318.018 420.284 317.987C358.971 313.706 325.868 281.184 321.005 220.355C320.974 219.949 320.413 219.949 320.381 220.355C315.488 281.184 282.415 313.738 221.102 317.987C220.697 317.987 220.697 318.58 221.102 318.611Z" fill="url(#paint1_linear_351_2395)"/>
<defs>
<linearGradient id="paint0_linear_351_2395" x1="419.489" y1="33.9775" x2="-108.558" y2="681.34" gradientUnits="userSpaceOnUse">
<stop offset="0.0192308" stop-color="#ECB1FF"/>
<stop offset="0.375" stop-color="#C447EB"/>
<stop offset="1" stop-color="#3E1866"/>
</linearGradient>
<linearGradient id="paint1_linear_351_2395" x1="346.147" y1="283.681" x2="125.748" y2="542.268" gradientUnits="userSpaceOnUse">
<stop offset="0.0192308" stop-color="#3CC1FB"/>
<stop offset="0.480769" stop-color="#A13BC8"/>
</linearGradient>
</defs>
</svg>
