<svg width="18" height="18" viewBox="0 0 18 18" fill="none" xmlns="http://www.w3.org/2000/svg">
    <path d="M6.65332 4.40039C7.7257 2.64616 10.2743 2.64616 11.3467 4.40039L15.5742 11.3154C16.6944 13.1479 15.3753 15.5 13.2275 15.5H4.77246C2.62474 15.5 1.30559 13.1479 2.42578 11.3154L6.65332 4.40039ZM10.0664 5.18261C9.57896 4.38525 8.42104 4.38525 7.93359 5.18261L3.70605 12.0977C3.19687 12.9306 3.79624 14 4.77246 14H13.2275C14.2038 14 14.8031 12.9306 14.2939 12.0977L10.0664 5.18261Z" fill="currentColor"/>
    <path d="M9.16871 11.1279C8.92561 11.1279 8.71785 10.9528 8.68789 10.7116C8.68126 10.6582 8.67463 10.6023 8.668 10.5439C8.64133 10.3039 8.62 10.0559 8.604 9.79994C8.588 9.54394 8.58 9.30928 8.58 9.09594V7.91194C8.58 7.58499 8.84505 7.31994 9.172 7.31994C9.49895 7.31994 9.764 7.58499 9.764 7.91194V9.09594C9.764 9.30928 9.756 9.54394 9.74 9.79994C9.724 10.0559 9.70267 10.3039 9.676 10.5439C9.67001 10.5967 9.66415 10.6474 9.65843 10.6961C9.6293 10.9439 9.41818 11.1279 9.16871 11.1279ZM9.14 12.9999C8.78654 12.9999 8.5 12.7134 8.5 12.3599C8.5 12.0065 8.78654 11.7199 9.14 11.7199H9.204C9.55746 11.7199 9.844 12.0065 9.844 12.3599C9.844 12.7134 9.55746 12.9999 9.204 12.9999H9.14Z" fill="currentColor"/>
</svg>
